<svg xmlns="http://www.w3.org/2000/svg" xmlns:xlink="http://www.w3.org/1999/xlink" width="546" height="546" viewBox="0 0 546 546"><defs><linearGradient id="a" x1="0.984" x2="-0.015" y2="1" gradientUnits="objectBoundingBox"><stop offset="0" stop-color="#6f43ec"/><stop offset="0.505" stop-color="#4c31da"/><stop offset="1" stop-color="#644bea"/></linearGradient></defs><g transform="translate(3216.895 1141.494)"><rect width="546" height="546" rx="80" transform="translate(-3216.895 -1141.495)" fill="url(#a)"/><path d="M-891.624,1073.714l-166.83,127.988a7.692,7.692,0,0,1-9.378,0l-56.162-43.093,35.854-28.029,20.307,15.586a7.692,7.692,0,0,0,9.378,0l94.43-72.453a7.7,7.7,0,0,0,0-12.221l-94.43-72.452a7.691,7.691,0,0,0-9.378,0l-94.416,72.452a7.7,7.7,0,0,0,0,12.221l28.446,21.821,65.97-51.558a7.694,7.694,0,0,1,9.417-.052l22.968,17.621a7.7,7.7,0,0,1,.052,12.169l-62.84,49.119-35.855,28.028-.547.418v91.338a3,3,0,0,1-5.648,1.408l-12.051-26.294a3.011,3.011,0,0,0-4.8-.952l-8.543,7.969a2.994,2.994,0,0,1-4.526-2.57v-98.2l.535-.418-64.979-49.849a7.7,7.7,0,0,1,0-12.221l166.816-128a7.691,7.691,0,0,1,9.378,0l166.83,128A7.7,7.7,0,0,1-891.624,1073.714Z" transform="translate(-1880.759 -1932.928)" fill="#fff"/></g></svg>